<?xml version="1.0" encoding="UTF-8"?>
<svg xmlns="http://www.w3.org/2000/svg" xmlns:xlink="http://www.w3.org/1999/xlink" width="1167px" height="700px" viewBox="0 0 1166 700" version="1.1">
<defs>
<clipPath id="clip1">
  <path d="M 410 283.695312 L 544 283.695312 L 544 347 L 410 347 Z M 410 283.695312 "/>
</clipPath>
<clipPath id="clip2">
  <path d="M 639 358 L 754.523438 358 L 754.523438 375 L 639 375 Z M 639 358 "/>
</clipPath>
</defs>
<g id="surface1">
<g clip-path="url(#clip1)" clip-rule="nonzero">
<path style=" stroke:none;fill-rule:nonzero;fill:rgb(36.862745%,9.019608%,92.156863%);fill-opacity:1;" d="M 535.800781 284.59375 C 538.277344 284.179688 540.78125 283.71875 543.308594 283.695312 C 536.019531 284.8125 528.828125 286.585938 521.980469 289.234375 C 515.640625 291.667969 509.640625 294.996094 504.246094 299.078125 C 499.21875 302.847656 494.699219 307.222656 489.9375 311.257812 C 484.546875 315.703125 478.667969 319.519531 472.59375 322.972656 C 459.550781 330.265625 445.628906 335.828125 431.445312 340.472656 C 425.324219 342.441406 419.175781 344.265625 412.933594 345.84375 C 412.011719 346.039062 411.113281 346.378906 410.164062 346.425781 C 413.710938 345.550781 417.210938 344.457031 420.730469 343.414062 C 435.574219 338.867188 450.199219 333.375 463.996094 326.230469 C 473.734375 321.148438 483.089844 315.195312 491.273438 307.855469 C 493.242188 306.152344 494.992188 304.257812 496.957031 302.605469 C 507.914062 293.171875 521.613281 287.144531 535.800781 284.59375 Z M 535.800781 284.59375 "/>
</g>
<path style=" stroke:none;fill-rule:nonzero;fill:rgb(36.862745%,9.019608%,92.156863%);fill-opacity:1;" d="M 570.269531 285.734375 C 586.035156 284.714844 601.851562 285.929688 617.46875 288.117188 C 621.550781 288.433594 625.363281 290.015625 629.203125 291.277344 C 641.25 295.386719 653.15625 299.90625 664.691406 305.253906 C 654.832031 304.378906 644.917969 304.085938 635.03125 304.0625 C 623.203125 304.015625 611.371094 304.355469 599.542969 304.9375 C 596.75 305.082031 593.882812 305.179688 591.113281 304.671875 C 588.902344 304.257812 586.714844 303.429688 584.992188 301.972656 C 580.28125 297.765625 575.832031 293.269531 570.734375 289.503906 C 569.859375 288.824219 568.765625 288.359375 568.132812 287.390625 C 567.890625 287.074219 567.867188 286.5625 568.230469 286.320312 C 568.8125 285.882812 569.566406 285.832031 570.269531 285.734375 Z M 570.269531 285.734375 "/>
<path style=" stroke:none;fill-rule:nonzero;fill:rgb(36.862745%,9.019608%,92.156863%);fill-opacity:1;" d="M 545.054688 288.605469 C 549.066406 288.191406 553.195312 288.386719 557.082031 289.527344 C 562.253906 290.984375 566.941406 293.976562 570.734375 297.742188 C 573.9375 300.878906 576.539062 304.574219 578.699219 308.484375 C 563.128906 309.117188 547.558594 309.675781 531.988281 310.332031 C 529.851562 305.691406 527.082031 301.265625 523.4375 297.644531 C 522.828125 297.015625 522.003906 296.527344 521.738281 295.652344 C 521.6875 294.972656 522.441406 294.65625 522.949219 294.414062 C 525.597656 293.320312 528.296875 292.394531 531.015625 291.546875 C 535.605469 290.183594 540.269531 289.066406 545.054688 288.605469 Z M 545.054688 288.605469 "/>
<path style=" stroke:none;fill-rule:nonzero;fill:rgb(36.862745%,9.019608%,92.156863%);fill-opacity:1;" d="M 514.570312 298.277344 C 515.589844 297.792969 516.585938 297.085938 517.777344 297.039062 C 518.675781 297.136719 519.378906 297.792969 520.058594 298.328125 C 522.050781 300.125 523.605469 302.335938 525.089844 304.574219 C 525.914062 305.835938 526.691406 307.125 527.421875 308.460938 C 527.664062 308.949219 527.957031 309.53125 527.6875 310.066406 C 527.347656 310.625 526.59375 310.550781 526.011719 310.578125 C 521.738281 310.527344 517.484375 310.601562 513.210938 310.722656 C 509.128906 310.890625 505.023438 311.109375 500.992188 311.765625 C 499.507812 312.035156 498.027344 312.300781 496.667969 312.933594 C 499.777344 307.636719 504.636719 303.550781 509.980469 300.609375 C 511.460938 299.761719 513.015625 299.054688 514.570312 298.277344 Z M 514.570312 298.277344 "/>
<path style=" stroke:none;fill-rule:nonzero;fill:rgb(36.862745%,9.019608%,92.156863%);fill-opacity:1;" d="M 613.632812 307.5625 C 622.960938 307.34375 632.289062 307.101562 641.617188 306.664062 C 651.671875 306.324219 661.753906 306.46875 671.785156 307.390625 C 680.457031 308.144531 689.105469 309.070312 697.753906 310.210938 C 702.296875 310.820312 706.839844 311.476562 711.355469 312.375 C 718.011719 313.664062 724.765625 314.976562 731.035156 317.722656 C 732.902344 318.546875 734.75 319.496094 736.5 320.589844 C 732.953125 319.230469 729.308594 318.0625 725.566406 317.332031 C 723.964844 317.015625 722.359375 316.871094 720.757812 316.554688 C 718.960938 316.386719 717.136719 316.554688 715.316406 316.53125 C 709.707031 316.578125 704.070312 316.75 698.484375 317.527344 C 697.753906 317.625 696.902344 317.769531 696.441406 318.402344 C 696.054688 319.058594 696.34375 319.835938 696.636719 320.445312 C 698.578125 323.847656 700.304688 327.347656 702.101562 330.824219 C 703.339844 333.253906 704.628906 335.683594 705.820312 338.164062 C 700.9375 330.386719 694.183594 323.824219 686.386719 319.011719 C 685.050781 318.183594 683.6875 317.40625 682.253906 316.75 C 680.335938 315.851562 678.246094 315.363281 676.160156 315.046875 C 672.152344 314.539062 668.191406 313.664062 664.183594 313.007812 C 645.136719 309.726562 625.828125 307.804688 606.488281 307.78125 C 608.847656 307.609375 611.25 307.636719 613.632812 307.5625 Z M 613.632812 307.5625 "/>
<path style=" stroke:none;fill-rule:nonzero;fill:rgb(36.862745%,9.019608%,92.156863%);fill-opacity:1;" d="M 661.171875 318.109375 C 664.207031 318.71875 667.242188 319.8125 669.550781 321.925781 C 670.910156 323.117188 671.882812 324.699219 672.320312 326.449219 C 672.613281 327.589844 672.464844 328.878906 671.738281 329.828125 C 670.886719 331.015625 669.503906 331.699219 668.140625 332.136719 C 669.40625 331.1875 670.691406 330.117188 671.203125 328.585938 C 671.714844 327.152344 671.226562 325.597656 670.351562 324.40625 C 668.992188 322.535156 667.050781 321.199219 665.082031 320.03125 C 663.820312 319.300781 662.507812 318.671875 661.171875 318.109375 Z M 661.171875 318.109375 "/>
<path style=" stroke:none;fill-rule:nonzero;fill:rgb(36.862745%,9.019608%,92.156863%);fill-opacity:1;" d="M 719.203125 318.085938 C 720.027344 317.988281 720.878906 317.941406 721.730469 318.039062 C 725.714844 318.839844 729.746094 319.519531 733.609375 320.785156 C 734.75 321.171875 735.867188 321.609375 736.789062 322.390625 C 738.03125 323.359375 738.808594 324.769531 739.316406 326.230469 C 740.214844 328.828125 741.164062 331.453125 741.792969 334.128906 C 742.0625 335.269531 742.351562 336.558594 741.769531 337.652344 C 741.40625 338.359375 740.605469 338.722656 739.828125 338.671875 C 732.222656 338.089844 724.597656 337.796875 716.96875 337.675781 C 715.023438 337.578125 713.007812 337.847656 711.113281 337.214844 C 709 336.484375 707.46875 334.734375 706.230469 332.960938 C 704.191406 330.019531 702.371094 326.910156 700.667969 323.75 C 700.132812 322.679688 699.648438 321.464844 699.964844 320.25 C 700.207031 319.375 701.15625 318.984375 701.980469 318.9375 C 707.714844 318.355469 713.46875 318.378906 719.203125 318.085938 Z M 719.203125 318.085938 "/>
<path style=" stroke:none;fill-rule:nonzero;fill:rgb(36.862745%,9.019608%,92.156863%);fill-opacity:1;" d="M 656.457031 318.28125 C 659.445312 318.039062 662.265625 319.398438 664.742188 320.882812 C 666.34375 321.828125 667.875 322.972656 668.96875 324.503906 C 669.84375 325.765625 670.28125 327.347656 670.011719 328.878906 C 669.601562 330.238281 668.335938 331.1875 667.023438 331.578125 C 665.324219 332.0625 663.503906 332.015625 661.777344 331.671875 C 657.695312 330.894531 654.175781 327.929688 652.523438 324.164062 C 652.011719 323.046875 651.941406 321.609375 652.742188 320.613281 C 653.6875 319.472656 654.925781 318.425781 656.457031 318.28125 Z M 656.457031 318.28125 "/>
<path style=" stroke:none;fill-rule:nonzero;fill:rgb(36.862745%,9.019608%,92.156863%);fill-opacity:1;" d="M 675.914062 318.355469 C 678.855469 317.867188 681.792969 319.011719 684.199219 320.664062 C 685.730469 321.707031 687.089844 322.996094 688.351562 324.332031 C 689.496094 325.523438 690.222656 327.054688 690.636719 328.636719 C 690.902344 329.898438 690.929688 331.382812 690.101562 332.453125 C 689.105469 333.691406 687.40625 334.105469 685.875 334.054688 C 681.792969 333.691406 677.933594 331.480469 675.527344 328.171875 C 674.652344 326.984375 673.949219 325.671875 673.414062 324.308594 C 672.976562 323.046875 672.855469 321.609375 673.390625 320.371094 C 673.828125 319.328125 674.796875 318.574219 675.914062 318.355469 Z M 675.914062 318.355469 "/>
<path style=" stroke:none;fill-rule:nonzero;fill:rgb(36.862745%,9.019608%,92.156863%);fill-opacity:1;" d="M 682.742188 318.816406 C 685.339844 320.203125 687.941406 321.683594 690.175781 323.628906 C 691.292969 324.648438 692.359375 325.792969 692.96875 327.203125 C 693.429688 328.269531 693.476562 329.535156 692.945312 330.578125 C 692.554688 331.429688 691.828125 332.085938 691.097656 332.644531 C 691.851562 331.261719 692.046875 329.582031 691.535156 328.078125 C 690.757812 325.671875 688.984375 323.75 687.136719 322.097656 C 685.777344 320.859375 684.246094 319.859375 682.742188 318.816406 Z M 682.742188 318.816406 "/>
<path style=" stroke:none;fill-rule:nonzero;fill:rgb(36.862745%,9.019608%,92.156863%);fill-opacity:1;" d="M 740.09375 324.308594 C 740.167969 324.261719 740.3125 324.1875 740.386719 324.140625 C 741.113281 324.308594 741.648438 324.84375 742.183594 325.328125 C 743.6875 326.933594 744.734375 328.902344 745.632812 330.871094 C 746.214844 332.257812 746.871094 333.667969 747.066406 335.171875 C 747.140625 335.804688 747.1875 336.582031 746.726562 337.09375 C 746.410156 337.289062 746.09375 337.046875 745.851562 336.851562 C 743.90625 334.929688 742.9375 332.28125 741.699219 329.898438 C 741.042969 328.488281 740.335938 327.105469 739.972656 325.621094 C 739.898438 325.183594 739.777344 324.671875 740.09375 324.308594 Z M 740.09375 324.308594 "/>
<path style=" stroke:none;fill-rule:nonzero;fill:rgb(36.862745%,9.019608%,92.156863%);fill-opacity:1;" d="M 608.601562 329.046875 C 611.90625 328.464844 615.40625 328.488281 618.5625 329.730469 C 621.332031 330.75 623.710938 332.644531 625.558594 334.929688 C 627.867188 337.773438 629.398438 341.175781 630.417969 344.675781 C 631.511719 348.515625 632.042969 352.503906 631.996094 356.488281 C 631.777344 360.0625 631.316406 363.609375 630.367188 367.039062 C 629.46875 370.269531 628.132812 373.40625 626.117188 376.105469 C 624.320312 378.460938 621.941406 380.40625 619.171875 381.546875 C 616.0625 382.859375 612.5625 383.175781 609.210938 382.738281 C 612.125 382.472656 615.015625 381.523438 617.371094 379.773438 C 620.042969 377.804688 621.964844 374.984375 623.277344 371.972656 C 625 368.058594 625.851562 363.828125 626.335938 359.625 C 626.871094 355.515625 626.796875 351.335938 626.289062 347.230469 C 625.828125 343.851562 625 340.472656 623.421875 337.433594 C 622.0625 334.808594 620.070312 332.476562 617.496094 330.96875 C 614.847656 329.390625 611.6875 328.855469 608.601562 329.046875 Z M 608.601562 329.046875 "/>
<path style=" stroke:none;fill-rule:nonzero;fill:rgb(36.862745%,9.019608%,92.156863%);fill-opacity:1;" d="M 498.390625 338.1875 C 499.921875 340.8125 501.574219 343.390625 503.710938 345.550781 C 504.976562 346.792969 506.433594 347.859375 508.085938 348.492188 C 509.832031 349.171875 511.726562 349.34375 513.574219 349.464844 C 535.996094 350.828125 558.441406 352.089844 580.886719 353.402344 C 582.246094 353.523438 583.605469 353.476562 584.96875 353.695312 C 574.328125 353.476562 563.710938 353.378906 553.074219 353.183594 C 539.421875 352.988281 525.769531 352.746094 512.117188 352.550781 C 510.34375 352.480469 508.546875 352.648438 506.820312 352.285156 C 504.199219 351.703125 502.15625 349.539062 501.355469 347.035156 C 500.382812 344.09375 499.316406 341.152344 498.390625 338.1875 Z M 498.390625 338.1875 "/>
<path style=" stroke:none;fill-rule:nonzero;fill:rgb(36.862745%,9.019608%,92.156863%);fill-opacity:1;" d="M 514.496094 356.707031 C 515.273438 356.609375 516.050781 356.417969 516.855469 356.417969 C 531.671875 357 546.488281 357.535156 561.308594 357.972656 C 566.675781 358.117188 572.042969 358.289062 577.414062 358.3125 C 578.019531 358.3125 578.628906 358.386719 579.210938 358.457031 C 577.097656 358.386719 574.960938 358.628906 572.847656 358.652344 C 559.363281 359.210938 545.882812 359.234375 532.425781 359.1875 C 521.785156 359.140625 511.167969 358.945312 500.554688 358.703125 C 505.195312 357.996094 509.859375 357.363281 514.496094 356.707031 Z M 514.496094 356.707031 "/>
<g clip-path="url(#clip2)" clip-rule="nonzero">
<path style=" stroke:none;fill-rule:nonzero;fill:rgb(36.862745%,9.019608%,92.156863%);fill-opacity:1;" d="M 639.015625 358.335938 C 639.136719 357.996094 639.503906 358.070312 639.769531 358.070312 C 647.714844 358.433594 655.679688 358.773438 663.625 358.605469 C 664.886719 361.035156 667 363.050781 669.601562 364 C 671.277344 364.632812 673.097656 364.898438 674.894531 364.800781 C 689.277344 365.726562 703.65625 366.453125 718.0625 366.261719 C 723.1875 366.066406 728.3125 365.75 733.414062 365.289062 C 737.398438 364.898438 741.355469 364.4375 745.269531 363.609375 C 746.96875 363.246094 748.644531 362.832031 750.25 362.152344 C 751.074219 361.8125 751.925781 361.398438 752.433594 360.597656 C 753.261719 361.667969 753.625 362.953125 754.011719 364.21875 C 754.351562 365.410156 754.109375 366.769531 753.308594 367.71875 C 752.117188 369.105469 750.34375 369.808594 748.667969 370.390625 C 745.121094 371.484375 741.429688 371.972656 737.761719 372.410156 C 728.265625 373.40625 718.667969 373.699219 709.121094 374.015625 C 689.347656 374.644531 669.550781 374.0625 649.828125 372.410156 C 646.667969 372.117188 643.484375 371.828125 640.328125 371.460938 C 640.0625 371.390625 639.671875 371.4375 639.625 371.097656 C 639.625 366.84375 639.40625 362.566406 639.015625 358.335938 Z M 639.015625 358.335938 "/>
</g>
<path style=" stroke:none;fill-rule:nonzero;fill:rgb(36.862745%,9.019608%,92.156863%);fill-opacity:1;" d="M 625.144531 379.628906 C 630.515625 375.035156 633.257812 367.960938 633.550781 361.035156 C 634.035156 362.953125 634.011719 364.949219 634.132812 366.890625 C 634.207031 369.492188 634.28125 372.117188 634.132812 374.71875 C 634.253906 375.253906 634.910156 375.398438 635.398438 375.496094 C 637.65625 375.859375 639.988281 375.8125 642.273438 376.007812 C 641.640625 377.078125 640.644531 377.902344 639.769531 378.777344 C 638.410156 380.089844 637 381.328125 635.519531 382.519531 C 633.867188 383.882812 631.558594 383.785156 629.542969 384.050781 C 625.171875 384.34375 620.773438 384.683594 616.425781 384.269531 C 619.609375 383.347656 622.644531 381.816406 625.144531 379.628906 Z M 625.144531 379.628906 "/>
<path style=" stroke:none;fill-rule:nonzero;fill:rgb(36.862745%,9.019608%,92.156863%);fill-opacity:1;" d="M 466.179688 364.609375 C 470.214844 364.921875 474.246094 365.433594 478.277344 365.796875 C 496.910156 367.671875 515.566406 369.46875 534.246094 371.097656 C 546.734375 372.167969 559.21875 373.1875 571.753906 373.890625 C 574.8125 374.015625 577.875 374.257812 580.960938 374.28125 C 576.003906 374.355469 571.023438 374.207031 566.070312 374.183594 C 553.511719 374.0625 540.949219 373.964844 528.390625 373.917969 C 527.492188 373.890625 526.59375 373.941406 525.695312 373.890625 C 505.851562 370.804688 486.027344 367.671875 466.179688 364.609375 Z M 466.179688 364.609375 "/>
<path style=" stroke:none;fill-rule:nonzero;fill:rgb(36.862745%,9.019608%,92.156863%);fill-opacity:1;" d="M 719.882812 376.980469 C 723.769531 376.882812 727.65625 376.710938 731.542969 376.371094 C 730.863281 377.585938 729.746094 378.4375 728.703125 379.3125 C 723.867188 383.054688 717.988281 385.582031 711.84375 385.949219 C 707.933594 386.167969 703.972656 385.390625 700.425781 383.734375 C 697 382.132812 693.964844 379.796875 691.363281 377.101562 C 700.863281 377.222656 710.386719 377.246094 719.882812 376.980469 Z M 719.882812 376.980469 "/>
</g>
</svg>
