<svg xmlns="http://www.w3.org/2000/svg" xmlns:xlink="http://www.w3.org/1999/xlink" width="250" zoomAndPan="magnify" viewBox="0 0 187.5 112.499997" height="150" preserveAspectRatio="xMidYMid meet" version="1.0"><defs><clipPath id="1e9a27f837"><path d="M 65.929688 45.59375 L 88 45.59375 L 88 56 L 65.929688 56 Z M 65.929688 45.59375 " clip-rule="nonzero"/></clipPath><clipPath id="596c5f1fa5"><path d="M 91 45.59375 L 107 45.59375 L 107 50 L 91 50 Z M 91 45.59375 " clip-rule="nonzero"/></clipPath><clipPath id="b6736d0675"><path d="M 102 57 L 121.332031 57 L 121.332031 61 L 102 61 Z M 102 57 " clip-rule="nonzero"/></clipPath><clipPath id="97bdd892be"><path d="M 111 60 L 118 60 L 118 62.0625 L 111 62.0625 Z M 111 60 " clip-rule="nonzero"/></clipPath></defs><g clip-path="url(#1e9a27f837)"><path fill="#5e17eb" d="M 86.160156 45.738281 C 86.558594 45.671875 86.960938 45.597656 87.367188 45.59375 C 86.195312 45.773438 85.039062 46.058594 83.9375 46.484375 C 82.917969 46.875 81.953125 47.410156 81.085938 48.066406 C 80.277344 48.671875 79.550781 49.375 78.785156 50.023438 C 77.917969 50.738281 76.972656 51.351562 75.996094 51.90625 C 73.898438 53.078125 71.660156 53.972656 69.378906 54.71875 C 68.394531 55.035156 67.40625 55.328125 66.402344 55.582031 C 66.253906 55.613281 66.109375 55.667969 65.957031 55.675781 C 66.527344 55.535156 67.089844 55.359375 67.65625 55.191406 C 70.042969 54.460938 72.394531 53.578125 74.613281 52.429688 C 76.179688 51.613281 77.683594 50.65625 79 49.476562 C 79.316406 49.203125 79.597656 48.898438 79.914062 48.632812 C 81.675781 47.117188 83.878906 46.148438 86.160156 45.738281 Z M 86.160156 45.738281 " fill-opacity="1" fill-rule="nonzero"/></g><g clip-path="url(#596c5f1fa5)"><path fill="#5e17eb" d="M 91.703125 45.921875 C 94.238281 45.757812 96.78125 45.953125 99.292969 46.304688 C 99.949219 46.355469 100.5625 46.609375 101.179688 46.8125 C 103.117188 47.472656 105.03125 48.199219 106.886719 49.058594 C 105.300781 48.917969 103.707031 48.871094 102.117188 48.867188 C 100.214844 48.859375 98.3125 48.914062 96.410156 49.007812 C 95.960938 49.03125 95.5 49.046875 95.054688 48.964844 C 94.699219 48.898438 94.347656 48.765625 94.070312 48.53125 C 93.3125 47.855469 92.597656 47.132812 91.777344 46.527344 C 91.636719 46.417969 91.460938 46.34375 91.359375 46.1875 C 91.320312 46.136719 91.316406 46.054688 91.375 46.015625 C 91.46875 45.945312 91.589844 45.9375 91.703125 45.921875 Z M 91.703125 45.921875 " fill-opacity="1" fill-rule="nonzero"/></g><path fill="#5e17eb" d="M 87.648438 46.382812 C 88.292969 46.316406 88.957031 46.347656 89.582031 46.53125 C 90.414062 46.765625 91.167969 47.246094 91.777344 47.851562 C 92.292969 48.355469 92.710938 48.949219 93.058594 49.578125 C 90.554688 49.679688 88.050781 49.769531 85.546875 49.875 C 85.203125 49.128906 84.757812 48.417969 84.171875 47.835938 C 84.074219 47.734375 83.941406 47.65625 83.898438 47.515625 C 83.890625 47.40625 84.011719 47.355469 84.09375 47.316406 C 84.519531 47.140625 84.953125 46.992188 85.390625 46.855469 C 86.128906 46.636719 86.878906 46.457031 87.648438 46.382812 Z M 87.648438 46.382812 " fill-opacity="1" fill-rule="nonzero"/><path fill="#5e17eb" d="M 82.746094 47.9375 C 82.910156 47.859375 83.070312 47.746094 83.261719 47.738281 C 83.40625 47.753906 83.519531 47.859375 83.628906 47.945312 C 83.949219 48.234375 84.199219 48.589844 84.4375 48.949219 C 84.570312 49.152344 84.695312 49.359375 84.8125 49.574219 C 84.851562 49.652344 84.898438 49.746094 84.855469 49.832031 C 84.800781 49.921875 84.679688 49.910156 84.585938 49.914062 C 83.898438 49.90625 83.214844 49.917969 82.527344 49.9375 C 81.871094 49.964844 81.210938 50 80.5625 50.105469 C 80.324219 50.148438 80.085938 50.191406 79.867188 50.292969 C 80.367188 49.441406 81.148438 48.785156 82.007812 48.3125 C 82.246094 48.175781 82.496094 48.0625 82.746094 47.9375 Z M 82.746094 47.9375 " fill-opacity="1" fill-rule="nonzero"/><path fill="#5e17eb" d="M 98.675781 49.429688 C 100.175781 49.394531 101.675781 49.355469 103.175781 49.285156 C 104.792969 49.230469 106.414062 49.253906 108.027344 49.402344 C 109.421875 49.523438 110.8125 49.671875 112.203125 49.855469 C 112.933594 49.953125 113.664062 50.058594 114.390625 50.203125 C 115.460938 50.410156 116.546875 50.621094 117.554688 51.0625 C 117.855469 51.195312 118.152344 51.347656 118.433594 51.523438 C 117.863281 51.304688 117.277344 51.117188 116.675781 51 C 116.417969 50.949219 116.160156 50.925781 115.902344 50.875 C 115.613281 50.847656 115.320312 50.875 115.027344 50.871094 C 114.125 50.878906 113.21875 50.90625 112.320312 51.03125 C 112.203125 51.046875 112.066406 51.070312 111.992188 51.171875 C 111.929688 51.277344 111.976562 51.402344 112.023438 51.5 C 112.335938 52.046875 112.613281 52.609375 112.902344 53.167969 C 113.101562 53.558594 113.308594 53.949219 113.5 54.347656 C 112.714844 53.097656 111.628906 52.042969 110.375 51.269531 C 110.160156 51.136719 109.941406 51.011719 109.710938 50.90625 C 109.402344 50.761719 109.066406 50.683594 108.730469 50.632812 C 108.085938 50.550781 107.449219 50.410156 106.804688 50.304688 C 103.742188 49.777344 100.636719 49.46875 97.527344 49.464844 C 97.90625 49.4375 98.292969 49.441406 98.675781 49.429688 Z M 98.675781 49.429688 " fill-opacity="1" fill-rule="nonzero"/><path fill="#5e17eb" d="M 106.320312 51.125 C 106.808594 51.222656 107.296875 51.398438 107.667969 51.738281 C 107.886719 51.929688 108.042969 52.183594 108.113281 52.464844 C 108.160156 52.648438 108.136719 52.855469 108.019531 53.007812 C 107.882812 53.199219 107.660156 53.308594 107.441406 53.378906 C 107.644531 53.226562 107.851562 53.054688 107.933594 52.808594 C 108.015625 52.578125 107.9375 52.328125 107.796875 52.136719 C 107.578125 51.835938 107.265625 51.621094 106.949219 51.433594 C 106.746094 51.316406 106.535156 51.214844 106.320312 51.125 Z M 106.320312 51.125 " fill-opacity="1" fill-rule="nonzero"/><path fill="#5e17eb" d="M 115.652344 51.121094 C 115.785156 51.105469 115.921875 51.097656 116.058594 51.113281 C 116.699219 51.242188 117.347656 51.351562 117.96875 51.554688 C 118.152344 51.617188 118.332031 51.6875 118.480469 51.8125 C 118.679688 51.96875 118.804688 52.195312 118.886719 52.429688 C 119.03125 52.847656 119.183594 53.269531 119.285156 53.699219 C 119.328125 53.882812 119.375 54.089844 119.28125 54.265625 C 119.222656 54.378906 119.09375 54.4375 118.96875 54.429688 C 117.746094 54.335938 116.519531 54.289062 115.292969 54.269531 C 114.980469 54.253906 114.65625 54.296875 114.351562 54.195312 C 114.011719 54.078125 113.765625 53.796875 113.566406 53.511719 C 113.238281 53.039062 112.945312 52.539062 112.671875 52.03125 C 112.585938 51.859375 112.507812 51.664062 112.558594 51.46875 C 112.597656 51.328125 112.75 51.265625 112.882812 51.257812 C 113.804688 51.164062 114.730469 51.167969 115.652344 51.121094 Z M 115.652344 51.121094 " fill-opacity="1" fill-rule="nonzero"/><path fill="#5e17eb" d="M 105.5625 51.152344 C 106.042969 51.113281 106.496094 51.332031 106.894531 51.570312 C 107.152344 51.722656 107.398438 51.90625 107.574219 52.152344 C 107.714844 52.355469 107.785156 52.609375 107.742188 52.855469 C 107.675781 53.074219 107.472656 53.226562 107.261719 53.289062 C 106.988281 53.367188 106.695312 53.359375 106.417969 53.304688 C 105.761719 53.179688 105.195312 52.703125 104.929688 52.097656 C 104.847656 51.917969 104.835938 51.6875 104.964844 51.527344 C 105.117188 51.34375 105.316406 51.175781 105.5625 51.152344 Z M 105.5625 51.152344 " fill-opacity="1" fill-rule="nonzero"/><path fill="#5e17eb" d="M 108.691406 51.164062 C 109.164062 51.085938 109.636719 51.269531 110.023438 51.535156 C 110.269531 51.703125 110.488281 51.910156 110.691406 52.125 C 110.875 52.316406 110.992188 52.5625 111.058594 52.816406 C 111.101562 53.019531 111.105469 53.257812 110.972656 53.429688 C 110.8125 53.628906 110.539062 53.695312 110.292969 53.6875 C 109.636719 53.628906 109.015625 53.273438 108.628906 52.742188 C 108.488281 52.550781 108.375 52.339844 108.289062 52.121094 C 108.21875 51.917969 108.199219 51.6875 108.285156 51.488281 C 108.355469 51.320312 108.511719 51.199219 108.691406 51.164062 Z M 108.691406 51.164062 " fill-opacity="1" fill-rule="nonzero"/><path fill="#5e17eb" d="M 109.789062 51.238281 C 110.207031 51.460938 110.625 51.699219 110.984375 52.011719 C 111.164062 52.175781 111.335938 52.359375 111.433594 52.585938 C 111.507812 52.757812 111.515625 52.960938 111.429688 53.128906 C 111.367188 53.265625 111.25 53.371094 111.132812 53.460938 C 111.253906 53.238281 111.285156 52.96875 111.203125 52.726562 C 111.078125 52.339844 110.792969 52.03125 110.496094 51.765625 C 110.277344 51.566406 110.03125 51.40625 109.789062 51.238281 Z M 109.789062 51.238281 " fill-opacity="1" fill-rule="nonzero"/><path fill="#5e17eb" d="M 119.011719 52.121094 C 119.023438 52.113281 119.046875 52.101562 119.058594 52.09375 C 119.175781 52.121094 119.261719 52.207031 119.347656 52.285156 C 119.589844 52.542969 119.757812 52.859375 119.902344 53.175781 C 119.996094 53.398438 120.101562 53.625 120.132812 53.867188 C 120.144531 53.96875 120.152344 54.09375 120.078125 54.175781 C 120.027344 54.207031 119.976562 54.167969 119.9375 54.136719 C 119.625 53.828125 119.46875 53.402344 119.269531 53.019531 C 119.164062 52.792969 119.050781 52.570312 118.992188 52.332031 C 118.980469 52.261719 118.960938 52.179688 119.011719 52.121094 Z M 119.011719 52.121094 " fill-opacity="1" fill-rule="nonzero"/><path fill="#5e17eb" d="M 97.867188 52.882812 C 98.398438 52.789062 98.960938 52.792969 99.46875 52.992188 C 99.914062 53.15625 100.296875 53.460938 100.59375 53.828125 C 100.964844 54.285156 101.210938 54.832031 101.375 55.394531 C 101.550781 56.011719 101.636719 56.652344 101.628906 57.292969 C 101.59375 57.867188 101.519531 58.4375 101.367188 58.988281 C 101.222656 59.507812 101.007812 60.011719 100.683594 60.445312 C 100.394531 60.824219 100.011719 61.136719 99.566406 61.320312 C 99.066406 61.53125 98.503906 61.582031 97.964844 61.511719 C 98.433594 61.46875 98.898438 61.316406 99.277344 61.035156 C 99.707031 60.71875 100.015625 60.265625 100.226562 59.78125 C 100.503906 59.152344 100.640625 58.472656 100.71875 57.796875 C 100.804688 57.136719 100.792969 56.464844 100.710938 55.804688 C 100.636719 55.261719 100.503906 54.71875 100.25 54.230469 C 100.03125 53.808594 99.710938 53.433594 99.296875 53.191406 C 98.871094 52.9375 98.363281 52.851562 97.867188 52.882812 Z M 97.867188 52.882812 " fill-opacity="1" fill-rule="nonzero"/><path fill="#5e17eb" d="M 80.144531 54.351562 C 80.390625 54.773438 80.65625 55.1875 81 55.535156 C 81.203125 55.734375 81.4375 55.90625 81.703125 56.007812 C 81.984375 56.117188 82.289062 56.144531 82.585938 56.164062 C 86.191406 56.382812 89.800781 56.585938 93.410156 56.796875 C 93.628906 56.816406 93.847656 56.808594 94.066406 56.84375 C 92.355469 56.808594 90.648438 56.792969 88.9375 56.761719 C 86.742188 56.730469 84.546875 56.691406 82.351562 56.660156 C 82.066406 56.648438 81.777344 56.675781 81.5 56.617188 C 81.078125 56.523438 80.75 56.175781 80.621094 55.773438 C 80.464844 55.300781 80.292969 54.828125 80.144531 54.351562 Z M 80.144531 54.351562 " fill-opacity="1" fill-rule="nonzero"/><path fill="#5e17eb" d="M 82.734375 57.328125 C 82.859375 57.3125 82.984375 57.28125 83.113281 57.28125 C 85.496094 57.375 87.878906 57.460938 90.261719 57.53125 C 91.125 57.554688 91.988281 57.582031 92.851562 57.585938 C 92.949219 57.585938 93.046875 57.597656 93.140625 57.609375 C 92.800781 57.597656 92.457031 57.636719 92.117188 57.640625 C 89.949219 57.730469 87.78125 57.734375 85.617188 57.726562 C 83.90625 57.71875 82.199219 57.6875 80.492188 57.648438 C 81.238281 57.535156 81.988281 57.433594 82.734375 57.328125 Z M 82.734375 57.328125 " fill-opacity="1" fill-rule="nonzero"/><g clip-path="url(#b6736d0675)"><path fill="#5e17eb" d="M 102.757812 57.589844 C 102.777344 57.535156 102.835938 57.546875 102.878906 57.546875 C 104.15625 57.605469 105.4375 57.660156 106.714844 57.632812 C 106.917969 58.023438 107.257812 58.347656 107.675781 58.5 C 107.945312 58.601562 108.238281 58.644531 108.527344 58.628906 C 110.839844 58.777344 113.152344 58.894531 115.46875 58.863281 C 116.292969 58.832031 117.117188 58.78125 117.9375 58.707031 C 118.578125 58.644531 119.214844 58.570312 119.84375 58.4375 C 120.117188 58.378906 120.386719 58.3125 120.644531 58.203125 C 120.777344 58.148438 120.914062 58.082031 120.996094 57.953125 C 121.128906 58.125 121.1875 58.332031 121.25 58.535156 C 121.304688 58.726562 121.265625 58.945312 121.136719 59.097656 C 120.945312 59.320312 120.660156 59.433594 120.390625 59.527344 C 119.820312 59.703125 119.226562 59.78125 118.636719 59.851562 C 117.109375 60.011719 115.566406 60.058594 114.03125 60.109375 C 110.851562 60.210938 107.667969 60.117188 104.496094 59.851562 C 103.988281 59.804688 103.476562 59.757812 102.96875 59.699219 C 102.925781 59.6875 102.863281 59.695312 102.855469 59.640625 C 102.855469 58.957031 102.820312 58.269531 102.757812 57.589844 Z M 102.757812 57.589844 " fill-opacity="1" fill-rule="nonzero"/></g><path fill="#5e17eb" d="M 100.527344 61.011719 C 101.390625 60.273438 101.832031 59.136719 101.878906 58.023438 C 101.957031 58.332031 101.953125 58.652344 101.972656 58.964844 C 101.984375 59.382812 101.996094 59.804688 101.972656 60.222656 C 101.992188 60.308594 102.097656 60.332031 102.175781 60.347656 C 102.539062 60.40625 102.914062 60.398438 103.28125 60.429688 C 103.179688 60.601562 103.019531 60.734375 102.878906 60.875 C 102.660156 61.085938 102.433594 61.285156 102.195312 61.476562 C 101.929688 61.695312 101.558594 61.679688 101.234375 61.722656 C 100.53125 61.769531 99.824219 61.824219 99.125 61.757812 C 99.636719 61.609375 100.125 61.363281 100.527344 61.011719 Z M 100.527344 61.011719 " fill-opacity="1" fill-rule="nonzero"/><path fill="#5e17eb" d="M 74.964844 58.597656 C 75.613281 58.648438 76.261719 58.730469 76.910156 58.789062 C 79.90625 59.089844 82.90625 59.378906 85.910156 59.640625 C 87.917969 59.8125 89.925781 59.976562 91.941406 60.089844 C 92.433594 60.109375 92.925781 60.148438 93.421875 60.152344 C 92.625 60.164062 91.824219 60.140625 91.027344 60.136719 C 89.007812 60.117188 86.988281 60.101562 84.96875 60.09375 C 84.824219 60.089844 84.679688 60.097656 84.535156 60.089844 C 81.34375 59.59375 78.15625 59.089844 74.964844 58.597656 Z M 74.964844 58.597656 " fill-opacity="1" fill-rule="nonzero"/><g clip-path="url(#97bdd892be)"><path fill="#5e17eb" d="M 115.761719 60.585938 C 116.386719 60.570312 117.011719 60.542969 117.636719 60.488281 C 117.527344 60.683594 117.347656 60.820312 117.179688 60.960938 C 116.402344 61.5625 115.457031 61.96875 114.46875 62.027344 C 113.839844 62.0625 113.203125 61.9375 112.632812 61.671875 C 112.082031 61.414062 111.59375 61.039062 111.175781 60.605469 C 112.703125 60.625 114.234375 60.628906 115.761719 60.585938 Z M 115.761719 60.585938 " fill-opacity="1" fill-rule="nonzero"/></g></svg>